<svg width="20px" height="20px" viewBox="0 0 46 46" fill="none" xmlns="http://www.w3.org/2000/svg">
<path d="M0.960327 0.875183V3.90237L34.5034 35.6742L0.960327 8.5069V14.0327L34.3299 37.4912L26.184 35.8481L28.707 38.7493L22.0975 39.0313L45.1256 45.0879L38.9848 21.7391L37.5455 30.3978L34.9861 27.4484L36.5502 33.1169L14.1181 0.875183H12.021L25.3593 20.4628L9.26527 2.95343L18.5442 15.9422L3.23695 0.875183H0.960327ZM41.5541 9.51762L38.5321 13.1253L43.7062 32.645L45.1393 12.2268L41.5541 9.51743V9.51762ZM19.8153 40.2573L17.4739 42.4576L19.5059 45.047L33.4957 43.8489L19.8151 40.2573H19.8153Z" fill="#9337FF"/>
</svg>
